<?xml version="1.0" encoding="utf-8"?>
<!DOCTYPE svg PUBLIC "-//W3C//DTD SVG 1.1//EN" "http://www.w3.org/Graphics/SVG/1.1/DTD/svg11.dtd">
<svg version="1.1" id="Layer_1" xmlns="http://www.w3.org/2000/svg" xmlns:xlink="http://www.w3.org/1999/xlink" x="0px" y="0px"
	 width="360px" height="321.998px" viewBox="0 0 360 321.998" enable-background="new 0 0 360 321.998" xml:space="preserve">
<path fill="none" stroke="#A67C52" stroke-width="6" d="M180,137.344c21.515-12.451,36-35.698,36-62.344"/>
<path fill="none" stroke="#00B4B4" stroke-width="6" d="M132.666,219.328c-21.54-12.406-48.915-13.327-71.991-0.004"/>
<path fill="none" stroke="#A67C52" stroke-width="6" d="M227.334,219.328c0.025,24.857,12.916,49.025,35.992,62.349"/>
<line fill="none" stroke="#00B4B4" stroke-width="6" x1="180" y1="54.215" x2="216" y2="75"/>
<line fill="none" stroke="#000000" stroke-width="6" x1="60.675" y1="260.893" x2="60.675" y2="219.324"/>
<line fill="none" stroke="#000000" stroke-width="6" x1="299.325" y1="260.893" x2="263.326" y2="281.677"/>
<path fill="none" stroke="#000000" stroke-width="6" d="M144,75c0,26.646,14.485,49.893,36,62.344"/>
<path fill="none" stroke="#FF00FF" stroke-width="6" d="M180,12.646c17.219-9.941,39.236-4.042,49.178,13.176
	C239.118,43.041,233.219,65.059,216,75"/>
<path fill="none" stroke="#A67C52" stroke-width="6" d="M144,75c-17.219-9.94-23.119-31.958-13.178-49.177
	C140.764,8.604,162.781,2.705,180,12.646"/>
<line fill="none" stroke="#00B4B4" stroke-width="6" x1="180" y1="137.344" x2="180" y2="192"/>
<line fill="none" stroke="#FF00FF" stroke-width="6" x1="144" y1="75" x2="180" y2="54.215"/>
<line fill="none" stroke="#000000" stroke-width="6" x1="180" y1="54.215" x2="180" y2="12.646"/>
<circle fill="#FFFFFF" stroke="#000000" cx="180" cy="54.215" r="9"/>
<circle fill="#FFFFFF" stroke="#000000" cx="180" cy="12.646" r="9"/>
<circle fill="#FFFFFF" stroke="#000000" cx="144" cy="75" r="9"/>
<circle fill="#FFFFFF" stroke="#000000" cx="216" cy="75" r="9"/>
<circle fill="#FFFFFF" stroke="#000000" cx="180" cy="137.344" r="9"/>
<path fill="none" stroke="#FF00FF" stroke-width="6" d="M96.675,281.678c23.076-13.323,35.965-37.491,35.991-62.35"/>
<path fill="none" stroke="#FF00FF" stroke-width="6" d="M24.675,281.678C7.457,271.736,1.557,249.719,11.497,232.5
	c9.942-17.218,31.959-23.117,49.178-13.176"/>
<path fill="none" stroke="#000000" stroke-width="6" d="M96.675,281.678c0,19.882-16.118,36-36,36.001
	c-19.883-0.001-36-16.118-36-36.001"/>
<line fill="none" stroke="#A67C52" stroke-width="6" x1="132.667" y1="219.328" x2="180" y2="192"/>
<line fill="none" stroke="#00B4B4" stroke-width="6" x1="96.675" y1="281.678" x2="60.675" y2="260.893"/>
<line fill="none" stroke="#A67C52" stroke-width="6" x1="60.675" y1="260.893" x2="24.675" y2="281.678"/>
<circle fill="#FFFFFF" stroke="#000000" cx="60.675" cy="260.893" r="9"/>
<circle fill="#FFFFFF" stroke="#000000" cx="24.675" cy="281.677" r="9"/>
<circle fill="#FFFFFF" stroke="#000000" cx="96.675" cy="281.677" r="9"/>
<circle fill="#FFFFFF" stroke="#000000" cx="60.675" cy="219.323" r="9"/>
<circle fill="#FFFFFF" stroke="#000000" cx="132.667" cy="219.329" r="9"/>
<path fill="none" stroke="#000000" stroke-width="6" d="M299.326,219.322c-23.076-13.322-50.451-12.4-71.992,0.006"/>
<path fill="none" stroke="#00B4B4" stroke-width="6" d="M335.326,281.677c-0.001,19.883-16.119,36.001-36,36.001
	c-19.883,0-36-16.119-36-36.001"/>
<path fill="none" stroke="#A67C52" stroke-width="6" d="M299.326,219.322c17.217-9.94,39.235-4.041,49.178,13.177
	c9.939,17.22,4.041,39.235-13.178,49.178"/>
<line fill="none" stroke="#FF00FF" stroke-width="6" x1="227.334" y1="219.328" x2="180" y2="192"/>
<line fill="none" stroke="#00B4B4" stroke-width="6" x1="299.326" y1="219.322" x2="299.325" y2="260.893"/>
<line fill="none" stroke="#FF00FF" stroke-width="6" x1="299.325" y1="260.893" x2="335.326" y2="281.677"/>
<circle fill="#FFFFFF" stroke="#000000" cx="299.326" cy="260.892" r="9"/>
<circle fill="#FFFFFF" stroke="#000000" cx="335.325" cy="281.677" r="9"/>
<circle fill="#FFFFFF" stroke="#000000" cx="299.325" cy="219.323" r="9"/>
<circle fill="#FFFFFF" stroke="#000000" cx="263.325" cy="281.677" r="9"/>
<circle fill="#FFFFFF" stroke="#000000" cx="227.334" cy="219.328" r="9"/>
<circle fill="#FFFFFF" stroke="#000000" cx="180" cy="192" r="9"/>
</svg>
