<?xml version="1.0" encoding="UTF-8" standalone="no"?>
<svg
   xmlns:dc="http://purl.org/dc/elements/1.1/"
   xmlns:cc="http://creativecommons.org/ns#"
   xmlns:rdf="http://www.w3.org/1999/02/22-rdf-syntax-ns#"
   xmlns:svg="http://www.w3.org/2000/svg"
   xmlns="http://www.w3.org/2000/svg"
   xmlns:sodipodi="http://sodipodi.sourceforge.net/DTD/sodipodi-0.dtd"
   xmlns:inkscape="http://www.inkscape.org/namespaces/inkscape"
   version="1.1"
   id="svg2"
   xml:space="preserve"
   width="1366"
   height="805"
   viewBox="0 0 1365.9999 805"
   sodipodi:docname="fundo.svg"
   inkscape:version="1.0.2 (e86c870879, 2021-01-15)"><metadata
     id="metadata8"><rdf:RDF><cc:Work
         rdf:about=""><dc:format>image/svg+xml</dc:format><dc:type
           rdf:resource="http://purl.org/dc/dcmitype/StillImage" /><dc:title></dc:title></cc:Work></rdf:RDF></metadata><defs
     id="defs6"><clipPath
       clipPathUnits="userSpaceOnUse"
       id="clipPath18"><path
         d="M 668.74,-1.09801 H 769.107 V 601.093 H 668.74 Z"
         id="path16" /></clipPath></defs><sodipodi:namedview
     pagecolor="#ffffff"
     bordercolor="#666666"
     borderopacity="1"
     objecttolerance="10"
     gridtolerance="10"
     guidetolerance="10"
     inkscape:pageopacity="0"
     inkscape:pageshadow="2"
     inkscape:window-width="1920"
     inkscape:window-height="997"
     id="namedview4"
     showgrid="false"
     inkscape:zoom="0.99003736"
     inkscape:cx="683"
     inkscape:cy="401.5"
     inkscape:window-x="0"
     inkscape:window-y="28"
     inkscape:window-maximized="1"
     inkscape:current-layer="g10"
     inkscape:document-rotation="0"
     lock-margins="false" /><g
     id="g10"
     inkscape:groupmode="layer"
     inkscape:label="fundo"
     transform="matrix(1.3333333,0,0,-1.3333333,42.666667,800)"><g
       id="g12"
       transform="matrix(1.0062527,0,0,1.0062527,219.69091,-3.7520064)"><g
         id="g14"
         clip-path="url(#clipPath18)"><g
           id="g20"><path
             d="m 669.84,0.764088 c 0,1.857932 3.113,6.584152 5.65,8.576382 1.526,1.19863 8.847,5.37743 16.269,9.28663 17.193,9.0535 24.863,14.3333 32.533,22.3938 8.945,9.3995 11.895,14.2163 12.462,20.3538 7.664,82.9493 11.772,151.5693 12.689,211.9343 l 0.485,32.002 -6.261,6.134 c -12.293,12.047 -20.908,29.054 -24.259,47.892 -2.428,13.643 -2.779,24.483 -3.179,98.167 l -0.403,73.992 -3.684,9.157 c -7.639,18.985 -13.782,31.375 -27.151,54.761 l -2.618,4.579 h 42.817 42.817 V 299.997 0.00199157 h -49.084 c -33.487,0 -49.083,0.24216143 -49.083,0.76209643 z"
             style="fill:#fdf0ce;fill-opacity:1;fill-rule:evenodd;stroke:none"
             id="path22" /></g><g
           id="g24"><path
             d="m 669.84,0.391689 c 0,1.548611 2.496,5.548351 4.859,7.789871 1.558,1.47739 8.602,5.72434 15.653,9.43714 16.557,8.7199 25.538,14.6071 31.988,20.9674 5.115,5.0457 11.116,12.5883 13.165,16.5504 1.093,2.1143 3.691,29.2181 7.179,74.9005 4.467,58.526 6.174,93.726 6.773,139.767 l 0.466,35.738 -5.833,5.653 c -12.549,12.159 -21.401,29.828 -24.768,49.438 -1.954,11.377 -2.531,31.737 -2.895,101.842 l -0.355,68.706 -4.139,10.413 c -5.432,13.666 -15.427,34.228 -22.909,47.132 -3.298,5.689 -5.998,10.552 -5.998,10.806 0,0.253 19.121,0.461 42.491,0.461 h 42.49 V 299.997 0.00199157 h -49.084 c -26.996,0 -49.083,0.17500743 -49.083,0.38969743 z"
             style="fill:#fde7b2;fill-opacity:1;fill-rule:evenodd;stroke:none"
             id="path26" /></g><g
           id="g28"><path
             d="m 670.929,2.7492 c 1.813,4.4861 6.768,8.203 20.263,15.2012 6.992,3.6253 15.68,8.5286 19.306,10.8943 7.743,5.0528 17.669,14.7993 22.479,22.0723 3.142,4.7516 3.449,5.6389 4.183,12.0877 1.48,13.0065 5.821,66.3433 7.75,95.2363 0.605,9.066 1.284,19.121 1.508,22.344 1.624,23.388 2.676,53.168 3.048,86.326 l 0.435,38.707 -5.845,5.981 c -6.885,7.046 -9.196,10.017 -13.297,17.098 -6.266,10.818 -10.285,23.705 -12.296,39.431 -1.038,8.116 -1.283,20.894 -1.66,86.446 l -0.444,76.922 -3.572,8.791 c -5.691,14.005 -13.612,30.671 -19.848,41.757 -3.173,5.641 -6.726,11.987 -7.896,14.103 l -2.127,3.846 h 42.546 42.545 V 299.997 0.00199157 H 718.913 669.82 Z"
             style="fill:#fcdb89;fill-opacity:1;fill-rule:evenodd;stroke:none"
             id="path30" /></g><g
           id="g32"><path
             d="m 670.572,0.806823 c 0,1.921017 2.582,5.968567 5.055,7.928247 1.477,1.16909 8.442,5.15563 15.481,8.85823 17.884,9.4087 25.498,14.6314 33.443,22.9423 8.969,9.3822 11.618,13.8683 12.615,21.3702 1.808,13.6048 7.857,91.8462 9.938,128.5692 2.399,42.299 3.991,110.96 2.655,114.476 -0.422,1.11 -2.625,3.746 -4.895,5.858 -11.722,10.906 -20.694,28.004 -24.431,46.558 -2.877,14.291 -3.119,21.125 -3.468,97.939 l -0.339,74.725 -2.252,6.227 c -6.152,17.007 -18.407,42.045 -30.034,61.354 l -1.433,2.381 h 42.549 42.551 V 299.997 0.00199157 h -48.718 c -34.911,0 -48.717,0.22791643 -48.717,0.80483143 z"
             style="fill:#fcd77a;fill-opacity:1;fill-rule:evenodd;stroke:none"
             id="path34" /></g><g
           id="g36"><path
             d="m 729.94,1.65032 c 0.015,0.90658 1.138,12.85698 2.494,26.55638 2.514,25.3812 2.867,27.2218 7.102,37.0242 4.444,10.2838 7.753,22.1314 9.712,34.7691 2.94,18.952 4.359,63.49 4.421,138.629 l 0.052,63.17 -1.626,1.14 c -3.322,2.328 -3.686,4.61 -4.566,28.56 -2.079,56.56 -7.381,101.303 -17.217,145.287 -2.78,12.43 -8.488,33.166 -11.717,42.567 -1.028,2.992 -1.87,6.694 -1.87,8.227 0,1.533 -0.46,4.03 -1.024,5.549 -0.694,1.871 -1.291,9.34 -1.85,23.137 -1.101,27.15 -2.156,40.031 -3.446,42.078 l -1.039,1.649 h 29.32 29.321 V 299.997 0.00199157 h -19.048 -19.047 z"
             style="fill:#fac44c;fill-opacity:1;fill-rule:evenodd;stroke:none"
             id="path38" /></g><g
           id="g40"><path
             d="m 730.199,2.01661 c 0.223,1.10804 0.742,5.80577 1.154,10.43939 0.413,4.6336 1.083,11.8863 1.491,16.117 0.408,4.2307 1.105,11.6441 1.55,16.4741 0.464,5.0528 1.239,9.3995 1.825,10.2359 0.561,0.7997 1.019,2.1276 1.019,2.9507 0,0.8231 0.96,3.4696 2.135,5.8811 5.918,12.1548 10.088,29.3585 11.717,48.3392 2.24,26.117 4.008,112.644 3.252,159.196 -0.479,29.487 -0.531,30.292 -2.022,31.528 -3.128,2.596 -3.359,3.935 -4.093,23.748 -1.688,45.562 -5.429,85.474 -10.984,117.208 -0.406,2.317 -1.041,5.944 -1.412,8.059 -3.408,19.438 -9.34,43.565 -15.474,62.929 -1.997,6.307 -3.632,12.509 -3.632,13.784 0,1.276 -0.299,2.879 -0.664,3.561 -0.365,0.683 -1.023,9.315 -1.461,19.183 -1.23,27.705 -2.402,43.352 -3.443,45.962 l -0.95,2.381 h 28.9 28.9 V 299.997 0.00199157 h -19.106 -19.105 z"
             style="fill:#f9bb34;fill-opacity:1;fill-rule:evenodd;stroke:none"
             id="path42" /></g><g
           id="g44"><path
             d="m 761.079,297.455 c -3.609,2.023 -6.771,4.017 -7.025,4.428 -0.253,0.411 -0.68,14.825 -0.947,32.031 -1.148,73.945 -5.399,188.152 -7.437,199.779 -3.835,21.889 -11.748,37.414 -29.797,58.466 -7.188,8.384 -8.869,7.834 23.929,7.834 h 28.205 V 446.882 c 0,-84.212 -0.083,-153.111 -0.183,-153.11 -0.101,0 -3.136,1.658 -6.745,3.683 z"
             style="fill:#f6a414;fill-opacity:1;fill-rule:evenodd;stroke:none"
             id="path46" /></g></g></g></g></svg>
